<?xml version="1.0" encoding="UTF-8" standalone="no"?>
<svg
   xmlns:dc="http://purl.org/dc/elements/1.1/"
   xmlns:cc="http://creativecommons.org/ns#"
   xmlns:rdf="http://www.w3.org/1999/02/22-rdf-syntax-ns#"
   xmlns:svg="http://www.w3.org/2000/svg"
   xmlns="http://www.w3.org/2000/svg"
   xmlns:sodipodi="http://sodipodi.sourceforge.net/DTD/sodipodi-0.dtd"
   xmlns:inkscape="http://www.inkscape.org/namespaces/inkscape"
   inkscape:version="1.0beta2 (2b71d25, 2019-12-03)"
   sodipodi:docname="file-missing.svg"
   id="svg18"
   version="1.1"
   width="24"
   height="24">
  <metadata
     id="metadata24">
    <rdf:RDF>
      <cc:Work
         rdf:about="">
        <dc:format>image/svg+xml</dc:format>
        <dc:type
           rdf:resource="http://purl.org/dc/dcmitype/StillImage" />
        <dc:title></dc:title>
      </cc:Work>
    </rdf:RDF>
  </metadata>
  <defs
     id="defs22" />
  <sodipodi:namedview
     inkscape:current-layer="svg18"
     inkscape:window-maximized="0"
     inkscape:window-y="23"
     inkscape:window-x="0"
     inkscape:cy="12"
     inkscape:cx="12"
     inkscape:zoom="28.708333"
     showgrid="false"
     id="namedview20"
     inkscape:window-height="848"
     inkscape:window-width="1339"
     inkscape:pageshadow="2"
     inkscape:pageopacity="0"
     guidetolerance="10"
     gridtolerance="10"
     objecttolerance="10"
     borderopacity="1"
     inkscape:document-rotation="0"
     bordercolor="#666666"
     pagecolor="#ffffff" />
  <g
     id="g70">
    <path
       inkscape:connector-curvature="0"
       id="path10"
       fill="#95a5a6"
       d="M 5,2 C 3.8954,2 3,2.9 3,4 v 8 4 6 c 0,1.1 0.8954,2 2,2 h 14 c 1.105,0 2,-0.9 2,-2 V 16 12 8 L 15,2 Z" />
    <path
       inkscape:connector-curvature="0"
       id="path12"
       fill="#bdc3c7"
       d="M 5,1 C 3.8954,1 3,1.9 3,3 v 8 4 6 c 0,1.1 0.8954,2 2,2 h 14 c 1.105,0 2,-0.9 2,-2 V 15 11 7 L 15,1 Z" />
    <path
       inkscape:connector-curvature="0"
       id="path14"
       fill="#95a5a6"
       d="M 21,7 15,1 v 4 c 0,1.1 0.895,2 2,2 z" />
    <g
       id="g30"
       transform="matrix(0.5,0,0,0.5,6.103048,-506.78558)">
      <path
         id="path26"
         fill="#c0392b"
         d="m 12,1031.4 c -2.2482,0 -4.3298,0.7 -6,2 -2.4327,1.8 -4,4.7 -4,8 0,5.5 4.4772,10 10,10 5.523,0 10,-4.5 10,-10 0,-5.6 -4.477,-10 -10,-10 z m 0,3 c 3.866,0 7,3.1 7,7 0,1.4 -0.426,2.7 -1.156,3.8 l -9.6878,-9.7 c 1.1055,-0.7 2.4198,-1.1 3.8438,-1.1 z m -5.9375,3.3 9.6255,9.6 c -1.073,0.7 -2.331,1.1 -3.688,1.1 -3.866,0 -7,-3.2 -7,-7 0,-1.4 0.3937,-2.7 1.0625,-3.7 z"
         inkscape:connector-curvature="0" />
      <path
         id="path28"
         fill="#e74c3c"
         transform="translate(0,1028.4)"
         d="M 12,2 C 9.7518,2 7.6702,2.7477 6,4 3.5673,5.8241 2,8.7254 2,12 2,17.523 6.4772,22 12,22 17.523,22 22,17.523 22,12 22,6.4772 17.523,2 12,2 Z m 0,3 c 3.866,0 7,3.134 7,7 0,1.424 -0.426,2.738 -1.156,3.844 L 8.1562,6.1562 C 9.2617,5.4257 10.576,5 12,5 Z M 6.0625,8.3125 15.688,17.938 C 14.615,18.606 13.357,19 12,19 8.134,19 5,15.866 5,12 5,10.643 5.3937,9.3855 6.0625,8.3125 Z"
         inkscape:connector-curvature="0" />
    </g>
  </g>
</svg>
