<?xml version="1.0" encoding="UTF-8" standalone="no"?>
<svg
   xmlns:dc="http://purl.org/dc/elements/1.1/"
   xmlns:cc="http://creativecommons.org/ns#"
   xmlns:rdf="http://www.w3.org/1999/02/22-rdf-syntax-ns#"
   xmlns:svg="http://www.w3.org/2000/svg"
   xmlns="http://www.w3.org/2000/svg"
   xmlns:sodipodi="http://sodipodi.sourceforge.net/DTD/sodipodi-0.dtd"
   xmlns:inkscape="http://www.inkscape.org/namespaces/inkscape"
   height="24"
   width="24"
   version="1.1"
   id="svg20"
   sodipodi:docname="folder-dropdown.svg"
   inkscape:version="1.0beta2 (2b71d25, 2019-12-03)">
  <metadata
     id="metadata26">
    <rdf:RDF>
      <cc:Work
         rdf:about="">
        <dc:format>image/svg+xml</dc:format>
        <dc:type
           rdf:resource="http://purl.org/dc/dcmitype/StillImage" />
      </cc:Work>
    </rdf:RDF>
  </metadata>
  <defs
     id="defs24" />
  <sodipodi:namedview
     pagecolor="#ffffff"
     bordercolor="#666666"
     inkscape:document-rotation="0"
     borderopacity="1"
     objecttolerance="10"
     gridtolerance="10"
     guidetolerance="10"
     inkscape:pageopacity="0"
     inkscape:pageshadow="2"
     inkscape:window-width="1440"
     inkscape:window-height="855"
     id="namedview22"
     showgrid="false"
     inkscape:zoom="28.708333"
     inkscape:cx="9.0043541"
     inkscape:cy="10.606676"
     inkscape:window-x="29"
     inkscape:window-y="24"
     inkscape:window-maximized="0"
     inkscape:current-layer="svg20" />
  <g
     id="g1490">
    <g
       id="g1439">
      <path
         inkscape:connector-curvature="0"
         id="path10"
         fill="#2980b9"
         d="M 2,5 C 0.8954,5 0,5.9 0,7 v 14 c 0,1.1 0.89543,2 2,2 h 20 c 1.105,0 2,-0.9 2,-2 V 7 C 24,5.9 23.105,5 22,5 Z"
         style="fill:#95a5a6;fill-opacity:1" />
      <path
         inkscape:connector-curvature="0"
         id="path12"
         fill="#2980b9"
         d="M 3,1 C 1.8954,1 1,1.9 1,3 v 14 c 0,1.1 0.8954,2 2,2 h 11 5 2 c 1.105,0 2,-0.9 2,-2 V 8 5 C 23,3.9 22.105,3 21,3 H 19 14 13 L 10,1 Z"
         style="fill:#95a5a6;fill-opacity:1" />
      <path
         inkscape:connector-curvature="0"
         id="path14"
         fill="#bdc3c7"
         d="M 23,14 V 6 C 23,4.9 22.105,4 21,4 H 10 5 3 C 1.8954,4 1,4.9 1,6 v 8 z"
         style="fill:#ffffff;fill-opacity:1" />
      <path
         inkscape:connector-curvature="0"
         id="path16"
         fill="#3498db"
         d="M 2,5 C 0.8954,5 0,5.9 0,7 v 6 1 6 c 0,1.1 0.89543,2 2,2 h 20 c 1.105,0 2,-0.9 2,-2 V 14 13 7 C 24,5.9 23.105,5 22,5 Z"
         style="fill:#bdc3c7;fill-opacity:1" />
    </g>
    <path
       d="m 10,9 v 5 H 8 l 4,5 4,-5 H 14 V 9 Z"
       fill="#2980b9"
       id="path1445"
       inkscape:connector-curvature="0" />
  </g>
</svg>
