<?xml version="1.0" encoding="utf-8"?>
<!-- Generator: Adobe Illustrator 18.1.1, SVG Export Plug-In . SVG Version: 6.00 Build 0)  -->
<svg version="1.1" id="Layer_1" xmlns="http://www.w3.org/2000/svg" xmlns:xlink="http://www.w3.org/1999/xlink" x="0px" y="0px"
	 viewBox="-590 -500 1792 1792" enable-background="new -590 -500 1792 1792" xml:space="preserve">
<path d="M601.8,394.2L927.5,68.4c20.7-20.7,31-45.8,31-75.3c0-29.6-10.4-54.7-31-75.3L776.9-233c-20.7-20.7-45.8-31-75.3-31
	c-29.6,0-54.7,10.3-75.4,31L300.4,92.8L-25.4-233c-20.7-20.7-45.8-31-75.3-31c-29.5,0-54.7,10.3-75.3,31L-326.7-82.3
	c-20.7,20.7-31,45.8-31,75.3c0,29.6,10.3,54.7,31,75.3L-1,394.2l-325.8,325.8c-20.7,20.7-31,45.8-31,75.4c0,29.5,10.3,54.7,31,75.3
	l150.7,150.7c20.7,20.7,45.8,31,75.3,31c29.6,0,54.7-10.4,75.3-31l325.8-325.8l325.8,325.8c20.7,20.7,45.8,31,75.4,31
	c29.5,0,54.7-10.4,75.3-31l150.7-150.7c20.7-20.7,31-45.8,31-75.3c0-29.6-10.3-54.7-31-75.4L601.8,394.2z"/>
</svg>
