<?xml version="1.0" standalone="no"?>
<!DOCTYPE svg PUBLIC "-//W3C//DTD SVG 1.1//EN" "http://www.w3.org/Graphics/SVG/1.1/DTD/svg11.dtd" >
<svg xmlns="http://www.w3.org/2000/svg">
<defs>
  <font id="django-filer-iconfont" horiz-adv-x="2240">
    <font-face font-family="django-filer-iconfont"
      units-per-em="1792" ascent="1792"
      descent="0" />
    <missing-glyph horiz-adv-x="0" />
    <glyph glyph-name="arrow-down"
      unicode="&#xE001;"
      horiz-adv-x="1792" d="M896 1680A56 56 0 0 0 952 1624V303.1840000000002L1304.352 655.6480000000001A56 56 0 0 0 1383.6480000000001 576.3520000000001L935.6480000000003 128.3520000000001A56 56 0 0 0 856.3520000000001 128.3520000000001L408.3520000000001 576.3520000000001A56 56 0 0 0 487.6480000000001 655.6480000000001L840 303.1840000000002V1624A56 56 0 0 0 896 1680z" />
    <glyph glyph-name="check-o"
      unicode="&#xE002;"
      horiz-adv-x="1792" d="M1671 1226Q1671 1186 1643 1158L919 434L783 298Q755 270 715 270T647 298L511 434L149 796Q121 824 121 864T149 932L285 1068Q313 1096 353 1096T421 1068L715 773L1371 1430Q1399 1458 1439 1458T1507 1430L1643 1294Q1671 1266 1671 1226z" />
    <glyph glyph-name="check"
      unicode="&#xE003;"
      horiz-adv-x="1792" d="M1228.64 1235.3600000000001A84 84 0 0 0 1348.48 1117.76L901.6000000000003 558.8800000000001A84 84 0 0 0 780.6400000000001 556.6400000000001L484.288 852.992A84 84 0 1 0 603.008 971.712L837.536 737.296L1226.5120000000002 1232.896A29.904 29.904 0 0 0 1228.752 1235.3600000000001z" />
    <glyph glyph-name="close-o"
      unicode="&#xE004;"
      horiz-adv-x="1660.878048780488" d="M1641.7560975609758 336.0000000000003Q1641.7560975609758 281.3658536585367 1603.5121951219514 243.1219512195123L1417.7560975609756 57.3658536585367Q1379.5121951219514 19.1219512195123 1324.878048780488 19.1219512195123T1232 57.3658536585367L830.439024390244 458.9268292682927L428.8780487804879 57.3658536585367Q390.6341463414635 19.1219512195123 336 19.1219512195123T243.1219512195123 57.3658536585367L57.3658536585366 243.1219512195123Q19.1219512195122 281.3658536585367 19.1219512195122 336.0000000000003T57.3658536585366 428.8780487804879L458.9268292682927 830.4390243902441L57.3658536585366 1232.0000000000002Q19.1219512195122 1270.2439024390246 19.1219512195122 1324.878048780488T57.3658536585366 1417.7560975609758L243.1219512195123 1603.5121951219514Q281.3658536585366 1641.7560975609758 336 1641.7560975609758T428.8780487804879 1603.5121951219514L830.439024390244 1201.9512195121952L1232 1603.5121951219514Q1270.2439024390244 1641.7560975609758 1324.878048780488 1641.7560975609758T1417.7560975609756 1603.5121951219514L1603.5121951219514 1417.7560975609758Q1641.7560975609758 1379.5121951219514 1641.7560975609758 1324.878048780488T1603.5121951219514 1232.0000000000002L1201.9512195121952 830.4390243902441L1603.5121951219514 428.8780487804879Q1641.7560975609758 390.6341463414635 1641.7560975609758 336.0000000000003z" />
    <glyph glyph-name="close"
      unicode="&#xE005;"
      horiz-adv-x="1792" d="M240.352 1472.3519999999999A56 56 0 1 0 319.648 1551.6480000000001L896 975.184L1472.352 1551.6480000000001A56 56 0 0 0 1551.6480000000001 1472.3519999999999L975.184 896L1551.6480000000001 319.6479999999999A56 56 0 0 0 1472.352 240.3519999999999L896 816.8159999999999L319.648 240.3519999999999A56 56 0 0 0 240.352 319.6479999999999L816.816 896L240.352 1472.3519999999999z" />
    <glyph glyph-name="copy"
      unicode="&#xE006;"
      horiz-adv-x="1792" d="M14 1450.203125C14 1120.802095 14 791.40103 14 462C238 462 462 462 686 462C686 312.666655 686 163.333345 686 14C1050 14 1414 14 1778 14C1778 452.666655 1778 891.333345 1778 1330C1554 1330 1330 1330 1106 1330C1106 1479.3333345 1106 1628.6666655 1106 1778C851.265625 1778 596.53125 1778 341.796875 1778C232.53125 1668.734375 123.265625 1559.46875 14 1450.203125zM441 1694C634.666655 1694 828.333345 1694 1022 1694C1022 1575.4010405 1022 1456.8020845 1022 1338.203125C910 1226.203125 798 1114.203125 686 1002.203125C686 850.135405 686 698.06772 686 546C490 546 294 546 98 546C98 816.666655 98 1087.333345 98 1358C210 1358 322 1358 434 1358C434 1470 434 1582 434 1694C436.333345 1694 438.666655 1694 441 1694zM350 1649.299806C350 1580.1998695 350 1511.0999365 350 1442C275.267251 1442 200.5345055 1442 125.8017565 1442C200.5345055 1516.732749 275.267251 1591.4654945 350 1666.1982435C350 1660.565431 350 1654.9326185 350 1649.299806zM1113 1246C1306.666655 1246 1500.333345 1246 1694 1246C1694 863.333345 1694 480.666655 1694 98C1386 98 1078 98 770 98C770 368.666655 770 639.333345 770 910C882 910 994 910 1106 910C1106 1022 1106 1134 1106 1246C1108.333345 1246 1110.666655 1246 1113 1246zM1022 1201.29982C1022 1132.1998800000001 1022 1063.09994 1022 994C947.267265 994 872.534495 994 797.80176 994C872.534495 1068.732735 947.267265 1143.4655050000001 1022 1218.1982400000002C1022 1212.565445 1022 1206.9326150000002 1022 1201.29982z" />
    <glyph glyph-name="download-o"
      unicode="&#xE007;"
      horiz-adv-x="1941.3333333333335" d="M1493.3333333333335 224Q1493.3333333333335 254.3333333333333 1471.1666666666667 276.5T1418.6666666666667 298.6666666666665T1366.1666666666667 276.5T1344 224T1366.1666666666667 171.5T1418.6666666666667 149.3333333333333T1471.1666666666667 171.5T1493.3333333333335 224zM1792 224Q1792 254.3333333333333 1769.8333333333335 276.5T1717.3333333333335 298.6666666666665T1664.8333333333335 276.5T1642.6666666666667 224T1664.8333333333335 171.5T1717.3333333333335 149.3333333333333T1769.8333333333335 171.5T1792 224zM1941.3333333333337 485.3333333333333V112Q1941.3333333333337 65.3333333333333 1908.6666666666667 32.6666666666665T1829.3333333333337 0H112Q65.3333333333333 0 32.6666666666667 32.6666666666665T0 112V485.3333333333333Q0 532 32.6666666666667 564.6666666666665T112 597.3333333333333H654.5L812 438.6666666666665Q879.6666666666667 373.3333333333333 970.6666666666669 373.3333333333333T1129.3333333333335 438.6666666666665L1288 597.3333333333333H1829.3333333333337Q1876.0000000000005 597.3333333333333 1908.6666666666667 564.6666666666665T1941.3333333333337 485.3333333333333zM1562.1666666666667 1149.1666666666665Q1582 1101.3333333333333 1545.8333333333335 1067.5L1023.1666666666669 544.8333333333333Q1002.1666666666669 522.6666666666665 970.6666666666669 522.6666666666665T918.1666666666669 544.8333333333333L395.5 1067.5Q359.3333333333334 1101.3333333333333 379.1666666666667 1149.1666666666665Q399 1194.6666666666665 448 1194.6666666666665H746.6666666666667V1717.3333333333333Q746.6666666666667 1747.6666666666667 768.8333333333334 1769.8333333333333T821.3333333333334 1792H1120Q1150.3333333333335 1792 1172.5 1769.8333333333333T1194.6666666666667 1717.3333333333333V1194.6666666666665H1493.3333333333335Q1542.3333333333335 1194.6666666666665 1562.1666666666667 1149.1666666666665z" />
    <glyph glyph-name="download"
      unicode="&#xE008;"
      horiz-adv-x="1792" d="M56 683.2A56 56 0 0 0 112 627.2V347.2000000000001A112 112 0 0 1 224 235.2000000000001H1568A112 112 0 0 1 1680 347.2000000000001V627.2A56 56 0 0 0 1792 627.2V347.2000000000001A224 224 0 0 0 1568 123.2000000000001H224A224 224 0 0 0 0 347.2000000000001V627.2A56 56 0 0 0 56 683.2zM856.352 464.3520000000001A56 56 0 0 1 935.648 464.3520000000001L1271.648 800.3520000000001A56 56 0 0 1 1192.3519999999999 879.6480000000001L952 639.1840000000002V1624A56 56 0 0 1 840 1624V639.1840000000002L599.648 879.6479999999999A56 56 0 1 1 520.352 800.3519999999999L856.352 464.3519999999999z" />
    <glyph glyph-name="edit-o"
      unicode="&#xE009;"
      horiz-adv-x="1792" d="M423.5 149.3333333333333L529.6666666666667 255.5L255.5000000000001 529.6666666666665L149.3333333333334 423.5V298.6666666666665H298.6666666666667V149.3333333333333H423.5zM1033.6666666666667 1232Q1033.6666666666667 1257.6666666666665 1008.0000000000002 1257.6666666666665Q996.3333333333334 1257.6666666666665 988.1666666666669 1249.5L355.8333333333334 617.1666666666665Q347.6666666666667 609 347.6666666666667 597.3333333333333Q347.6666666666667 571.6666666666665 373.3333333333334 571.6666666666665Q385 571.6666666666665 393.1666666666667 579.8333333333333L1025.5 1212.1666666666665Q1033.6666666666667 1220.3333333333333 1033.6666666666667 1232zM970.6666666666669 1456L1456 970.6666666666666L485.3333333333334 0H0V485.3333333333333zM1767.5 1344Q1767.5 1282.1666666666665 1724.3333333333335 1239L1530.6666666666667 1045.3333333333333L1045.3333333333335 1530.6666666666665L1239 1723.1666666666667Q1281 1767.5 1344 1767.5Q1405.8333333333335 1767.5 1450.1666666666667 1723.1666666666667L1724.3333333333335 1450.1666666666665Q1767.5 1404.6666666666665 1767.5 1344z" />
    <glyph glyph-name="edit"
      unicode="&#xE00A;"
      horiz-adv-x="1792" d="M1360.352 1775.648A56 56 0 0 0 1439.6480000000001 1775.648L1775.6480000000001 1439.6480000000001A56 56 0 0 0 1775.6480000000001 1360.3519999999999L655.6480000000001 240.3520000000001A56 56 0 0 0 636.8320000000001 228.0320000000002L76.8320000000001 4.0320000000002A56 56 0 0 0 4.0320000000001 76.8320000000001L228.0320000000001 636.8320000000001A56 56 0 0 0 240.3520000000001 655.6480000000001L1360.352 1775.6480000000001zM1255.1840000000002 1512L1512 1255.184L1656.8159999999998 1400L1400 1656.816L1255.1840000000002 1512zM1432.816 1176L1176 1432.816L448 704.8159999999998V672H504A56 56 0 0 0 560 616V560H616A56 56 0 0 0 672 504V448H704.816L1432.8159999999998 1176zM339.5840000000002 596.3999999999999L327.7120000000002 584.528L156.5760000000002 156.576L584.5280000000002 327.712L596.4000000000002 339.5840000000001A56 56 0 0 0 560 392V448H504A56 56 0 0 0 448 504V560H392A56 56 0 0 0 339.584 596.3999999999999z" />
    <glyph glyph-name="link-o"
      unicode="&#xE00B;"
      horiz-adv-x="1792" d="M1568 482.4615384615386Q1568 525.5384615384617 1537.8461538461538 555.6923076923078L1313.8461538461538 779.6923076923077Q1283.6923076923076 809.8461538461539 1240.6153846153845 809.8461538461539Q1195.3846153846152 809.8461538461539 1163.076923076923 775.3846153846155Q1166.3076923076922 772.1538461538462 1183.5384615384614 755.4615384615386T1206.6923076923076 732.3076923076924T1222.8461538461538 711.8461538461538T1236.8461538461538 684.3846153846155T1240.6153846153845 654.7692307692307Q1240.6153846153845 611.6923076923078 1210.4615384615383 581.5384615384617T1137.2307692307693 551.3846153846155Q1121.076923076923 551.3846153846155 1107.6153846153845 555.1538461538462T1080.1538461538462 569.1538461538462T1059.6923076923076 585.3076923076924T1036.5384615384614 608.4615384615386T1016.6153846153846 628.9230769230769Q981.076923076923 595.5384615384617 981.076923076923 550.3076923076924Q981.076923076923 507.2307692307693 1011.2307692307692 477.0769230769231L1233.076923076923 254.1538461538462Q1262.1538461538462 225.0769230769231 1306.3076923076922 225.0769230769231Q1349.3846153846152 225.0769230769231 1379.5384615384614 253.0769230769231L1537.8461538461538 410.3076923076924Q1568 440.4615384615386 1568 482.4615384615386zM810.9230769230769 1241.6923076923076Q810.9230769230769 1284.7692307692307 780.7692307692307 1314.923076923077L558.9230769230769 1537.8461538461538Q528.7692307692307 1568 485.6923076923077 1568Q443.6923076923077 1568 412.4615384615385 1538.923076923077L254.1538461538462 1381.6923076923076Q224 1351.5384615384614 224 1309.5384615384614Q224 1266.4615384615386 254.1538461538462 1236.3076923076924L478.1538461538461 1012.3076923076924Q507.2307692307692 983.2307692307692 551.3846153846154 983.2307692307692Q596.6153846153846 983.2307692307692 628.9230769230769 1016.6153846153846Q625.6923076923076 1019.846153846154 608.4615384615385 1036.5384615384614T585.3076923076923 1059.6923076923076T569.1538461538461 1080.1538461538462T555.1538461538461 1107.6153846153848T551.3846153846154 1137.2307692307693Q551.3846153846154 1180.3076923076924 581.5384615384615 1210.4615384615386T654.7692307692307 1240.6153846153848Q670.9230769230769 1240.6153846153848 684.3846153846154 1236.8461538461538T711.8461538461538 1222.8461538461538T732.3076923076923 1206.6923076923076T755.4615384615385 1183.5384615384614T775.3846153846154 1163.076923076923Q810.9230769230769 1196.4615384615386 810.9230769230769 1241.6923076923076zM1774.7692307692307 482.4615384615386Q1774.7692307692307 353.2307692307693 1683.230769230769 263.8461538461538L1524.923076923077 106.6153846153848Q1435.5384615384614 17.2307692307693 1306.3076923076922 17.2307692307693Q1176 17.2307692307693 1086.6153846153845 108.769230769231L864.7692307692307 331.6923076923079Q775.3846153846154 421.0769230769231 775.3846153846154 550.3076923076924Q775.3846153846154 682.7692307692307 870.1538461538461 775.3846153846155L775.3846153846154 870.1538461538462Q682.7692307692307 775.3846153846155 551.3846153846154 775.3846153846155Q422.1538461538462 775.3846153846155 331.6923076923077 865.8461538461539L107.6923076923077 1089.8461538461538Q17.2307692307692 1180.3076923076924 17.2307692307692 1309.5384615384614T108.7692307692308 1528.1538461538462L267.0769230769231 1685.3846153846155Q356.4615384615385 1774.7692307692307 485.6923076923077 1774.7692307692307Q616 1774.7692307692307 705.3846153846154 1683.2307692307693L927.2307692307692 1460.3076923076924Q1016.6153846153846 1370.923076923077 1016.6153846153846 1241.6923076923076Q1016.6153846153846 1109.2307692307693 921.8461538461538 1016.6153846153846L1016.6153846153846 921.846153846154Q1109.2307692307693 1016.6153846153846 1240.6153846153845 1016.6153846153846Q1369.8461538461538 1016.6153846153846 1460.3076923076922 926.1538461538462L1684.3076923076922 702.1538461538462Q1774.7692307692307 611.6923076923078 1774.7692307692307 482.4615384615386z" />
    <glyph glyph-name="link"
      unicode="&#xE00C;"
      horiz-adv-x="1792" d="M528.0799999999999 1059.296L374.416 905.632A336.0000000000001 336.0000000000001 0 1 1 849.6320000000001 430.416L1054.368 635.2640000000001A336.0000000000001 336.0000000000001 0 0 1 961.632 1176L896 1110.368A112.224 112.224 0 0 1 878.752 1088.08A224 224 0 0 0 975.184 714.336L770.56 509.6000000000001A224 224 0 1 0 453.6 826.5600000000001L542.4159999999999 915.2640000000002A450.0159999999999 450.0159999999999 0 0 0 528.0799999999999 1059.408zM737.6320000000001 1268.7359999999999A336.0000000000001 336.0000000000001 0 0 1 830.3679999999999 728L917.168 814.912A224 224 0 0 0 816.816 1189.664L1021.44 1394.4A224 224 0 1 0 1338.3999999999999 1077.44L1249.584 988.736C1262.128 941.696 1266.944 892.9760000000001 1263.92 844.5920000000001L1417.584 998.256A336.0000000000001 336.0000000000001 0 1 1 942.368 1473.4720000000002L737.6320000000001 1268.7359999999999z" />
    <glyph glyph-name="move"
      unicode="&#xE00D;"
      horiz-adv-x="1792" d="M112 1400A168 168 0 0 0 280 1568H589.568C696.8639999999999 1568 786.6879999999999 1505.28 848.3999999999999 1435.392C894.32 1383.424 949.76 1344 1008 1344H1512A168 168 0 0 0 1680 1176V1104.3200000000002C1743.8400000000001 1074.64 1785.28 1006.208 1775.872 931.168L1704.192 357.2800000000002A280 280 0 0 0 1426.096 112H365.7920000000001A280 280 0 0 0 87.92 357.28L16.24 931.1679999999998A168 168 0 0 0 112 1104.3200000000002V1400zM224 1120H1568V1176A56 56 0 0 1 1512 1232H1008C900.0319999999999 1232 816.48 1302.4479999999999 764.5120000000001 1361.248C713.8879999999999 1418.592 651.84 1456 589.568 1456H280A56 56 0 0 1 224 1400V1120zM182.896 1008A56 56 0 0 1 127.344 945.056L199.024 371.1680000000001A168 168 0 0 1 365.7920000000001 224H1426.208A168 168 0 0 1 1592.976 371.1680000000001L1664.6560000000002 945.056A56 56 0 0 1 1609.104 1008H182.896z" />
    <glyph glyph-name="picture-o"
      unicode="&#xE00E;"
      horiz-adv-x="2240" d="M746.6666666666667 1269.3333333333333Q746.6666666666667 1176 681.3333333333334 1110.6666666666665T522.6666666666667 1045.3333333333333T364 1110.6666666666665T298.6666666666667 1269.3333333333333T364 1428T522.6666666666667 1493.3333333333333T681.3333333333334 1428T746.6666666666667 1269.3333333333333zM1941.3333333333337 821.3333333333333V298.6666666666665H298.6666666666667V522.6666666666665L672 896L858.6666666666667 709.3333333333333L1456 1306.6666666666665zM2053.3333333333335 1642.6666666666667H186.6666666666667Q171.5 1642.6666666666667 160.4166666666667 1631.5833333333333T149.3333333333334 1605.3333333333333V186.6666666666665Q149.3333333333334 171.5 160.4166666666667 160.4166666666665T186.6666666666667 149.3333333333333H2053.3333333333335Q2068.5 149.3333333333333 2079.5833333333335 160.4166666666665T2090.666666666667 186.6666666666665V1605.3333333333333Q2090.666666666667 1620.5 2079.5833333333335 1631.5833333333333T2053.3333333333335 1642.6666666666667zM2240 1605.3333333333333V186.6666666666665Q2240 109.6666666666665 2185.166666666667 54.8333333333333T2053.3333333333335 0H186.6666666666667Q109.6666666666667 0 54.8333333333333 54.8333333333333T0 186.6666666666665V1605.3333333333333Q0 1682.3333333333333 54.8333333333333 1737.1666666666667T186.6666666666667 1792H2053.3333333333335Q2130.3333333333335 1792 2185.166666666667 1737.1666666666667T2240 1605.3333333333333z" />
    <glyph glyph-name="picture"
      unicode="&#xE00F;"
      horiz-adv-x="1792" d="M672.2239999999999 1176A168 168 0 1 0 336.224 1176A168 168 0 0 0 672.2239999999999 1176zM224.224 1680A224 224 0 0 1 0.224 1456V336A224 224 0 0 1 224.224 112H1568.224A224 224 0 0 1 1792.224 336V1456A224 224 0 0 1 1568.224 1680H224.2239999999999zM1568.224 1568A112 112 0 0 0 1680.224 1456V728L1257.1999999999998 946.064A56 56 0 0 1 1192.5759999999998 935.648L777.0559999999998 520.1279999999999L479.1359999999997 718.5920000000001A56 56 0 0 1 408.5759999999998 711.6480000000001L112.224 448V1456A112 112 0 0 0 224.224 1568H1568.224z" />
    <glyph glyph-name="remove-o"
      unicode="&#xE010;"
      horiz-adv-x="1792" d="M1191.8 897.8L1517.5 1223.6C1538.2 1244.3000000000002 1548.5 1269.4 1548.5 1298.9C1548.5 1328.5 1538.1 1353.6 1517.5 1374.2L1366.9 1525C1346.2 1545.7 1321.1000000000001 1556 1291.6000000000001 1556C1262.0000000000002 1556 1236.9 1545.7 1216.2 1525L890.4 1199.2L564.6 1525C543.9 1545.7 518.8000000000001 1556 489.3 1556C459.8 1556 434.6 1545.7 414 1525L263.3 1374.3C242.6 1353.6 232.3 1328.5 232.3 1299C232.3 1269.4 242.6 1244.3 263.3 1223.7L589 897.8L263.2 572C242.5 551.3 232.2 526.2 232.2 496.5999999999999C232.2 467.0999999999999 242.5 441.8999999999999 263.2 421.3L413.9 270.5999999999999C434.6 249.8999999999999 459.7 239.5999999999999 489.2 239.5999999999999C518.8 239.5999999999999 543.9 250 564.5 270.5999999999999L890.3 596.3999999999999L1216.1 270.5999999999999C1236.8 249.8999999999999 1261.8999999999999 239.5999999999999 1291.5 239.5999999999999C1321 239.5999999999999 1346.2 250 1366.8 270.5999999999999L1517.5 421.3C1538.2 442 1548.5 467.0999999999999 1548.5 496.5999999999999C1548.5 526.1999999999998 1538.2 551.3 1517.5 572L1191.8 897.8z" />
    <glyph glyph-name="remove"
      unicode="&#xE011;"
      horiz-adv-x="1792" d="M520.352 1271.6480000000001A56 56 0 0 0 599.648 1271.6480000000001L896 975.184L1192.352 1271.648A56 56 0 0 0 1271.6480000000001 1192.3519999999999L975.184 896L1271.6480000000001 599.6479999999999A56 56 0 0 0 1192.352 520.3519999999999L896 816.8159999999999L599.648 520.3519999999999A56 56 0 0 0 520.352 599.6479999999999L816.816 896L520.352 1192.3519999999999A56 56 0 0 0 520.352 1271.6480000000001z" />
    <glyph glyph-name="search"
      unicode="&#xE012;"
      horiz-adv-x="1792" d="M1315.104 633.472A728 728 0 1 1 1158.64 476.8960000000002H1158.5280000000002C1161.8880000000001 472.4160000000002 1165.472 468.1600000000001 1169.5040000000001 464.0160000000001L1600.7040000000002 32.816A112 112 0 0 1 1759.1840000000002 191.1840000000002L1327.9840000000002 622.384A112.784 112.784 0 0 1 1315.104 633.5840000000001zM1344 1064A616 616 0 1 0 112 1064A616 616 0 0 0 1344 1064z" />
    <glyph glyph-name="select-o"
      unicode="&#xE013;"
      horiz-adv-x="1648.64" d="M1648.64 967.6800000000002V824.3200000000002Q1648.64 764.96 1612.2400000000002 722.96T1517.6000000000001 680.96H729.1200000000001L1057.2800000000002 351.6800000000001Q1099.8400000000001 311.3600000000002 1099.8400000000001 250.8800000000001T1057.2800000000002 150.0800000000002L973.28 64.96Q931.8400000000001 23.52 872.4800000000001 23.52Q814.2400000000001 23.52 770.5600000000001 64.96L41.44 795.2000000000002Q0 836.6400000000001 0 896.0000000000001Q0 954.2400000000002 41.44 997.9200000000002L770.5600000000001 1725.9200000000003Q813.1200000000001 1768.4800000000002 872.4800000000001 1768.4800000000002Q930.7200000000003 1768.4800000000002 973.28 1725.9200000000003L1057.2800000000002 1643.0400000000002Q1099.8400000000001 1600.4800000000002 1099.8400000000001 1541.1200000000001T1057.2800000000002 1439.2000000000003L729.1200000000001 1111.0400000000002H1517.6000000000001Q1575.8400000000001 1111.0400000000002 1612.2400000000002 1069.0400000000002T1648.64 967.6800000000002z" />
    <glyph glyph-name="select"
      unicode="&#xE014;"
      horiz-adv-x="1792" d="M1680 896A56 56 0 0 1 1624 952H303.184L655.6479999999999 1304.3519999999999A56 56 0 1 1 576.3519999999999 1383.6480000000001L128.3519999999999 935.648A56 56 0 0 1 128.3519999999999 856.3520000000001L576.3519999999999 408.3520000000001A56 56 0 0 1 655.6479999999999 487.6480000000001L303.184 840H1624A56 56 0 0 1 1680 896z" />
    <glyph glyph-name="th-large"
      unicode="&#xE015;"
      horiz-adv-x="2117.818181818182" d="M977.4545454545454 651.6363636363637V162.909090909091Q977.4545454545454 96.7272727272728 929.0909090909092 48.3636363636365T814.5454545454545 0H162.9090909090909Q96.7272727272727 0 48.3636363636364 48.3636363636365T0 162.909090909091V651.6363636363637Q0 717.8181818181818 48.3636363636364 766.1818181818182T162.9090909090909 814.5454545454545H814.5454545454545Q880.7272727272727 814.5454545454545 929.0909090909092 766.1818181818182T977.4545454545454 651.6363636363637zM977.4545454545454 1629.090909090909V1140.3636363636365Q977.4545454545454 1074.1818181818182 929.0909090909092 1025.818181818182T814.5454545454545 977.4545454545454H162.9090909090909Q96.7272727272727 977.4545454545454 48.3636363636364 1025.818181818182T0 1140.3636363636365V1629.090909090909Q0 1695.2727272727273 48.3636363636364 1743.6363636363637T162.9090909090909 1792H814.5454545454545Q880.7272727272727 1792 929.0909090909092 1743.6363636363637T977.4545454545454 1629.090909090909zM2117.818181818182 651.6363636363637V162.909090909091Q2117.818181818182 96.7272727272728 2069.4545454545455 48.3636363636365T1954.9090909090908 0H1303.2727272727273Q1237.090909090909 0 1188.7272727272727 48.3636363636365T1140.3636363636363 162.909090909091V651.6363636363637Q1140.3636363636363 717.8181818181818 1188.7272727272727 766.1818181818182T1303.2727272727273 814.5454545454545H1954.9090909090908Q2021.0909090909092 814.5454545454545 2069.4545454545455 766.1818181818182T2117.818181818182 651.6363636363637zM2117.818181818182 1629.090909090909V1140.3636363636365Q2117.818181818182 1074.1818181818182 2069.4545454545455 1025.818181818182T1954.9090909090908 977.4545454545454H1303.2727272727273Q1237.090909090909 977.4545454545454 1188.7272727272727 1025.818181818182T1140.3636363636363 1140.3636363636365V1629.090909090909Q1140.3636363636363 1695.2727272727273 1188.7272727272727 1743.6363636363637T1303.2727272727273 1792H1954.9090909090908Q2021.0909090909092 1792 2069.4545454545455 1743.6363636363637T2117.818181818182 1629.090909090909z" />
    <glyph glyph-name="th-list"
      unicode="&#xE016;"
      horiz-adv-x="1792" d="M224 1512A56 56 0 0 1 168 1456V1344A56 56 0 0 1 224 1288H336A56 56 0 0 1 392 1344V1456A56 56 0 0 1 336 1512H224zM336 1456H224V1344H336V1456zM560 1400A56 56 0 0 0 616 1456H1624A56 56 0 0 0 1624 1344H616A56 56 0 0 0 560 1400zM616 1008A56 56 0 0 1 616 896H1624A56 56 0 0 1 1624 1008H616zM616 560A56 56 0 0 1 616 448H1624A56 56 0 0 1 1624 560H616zM168 1008A56 56 0 0 0 224 1064H336A56 56 0 0 0 392 1008V896A56 56 0 0 0 336 840H224A56 56 0 0 0 168 896V1008zM224 1008H336V896H224V1008zM224 616A56 56 0 0 1 168 560V448A56 56 0 0 1 224 392H336A56 56 0 0 1 392 448V560A56 56 0 0 1 336 616H224zM336 560H224V448H336V560z" />
    <glyph glyph-name="trash-o"
      unicode="&#xE017;"
      horiz-adv-x="1792" d="M704 1056V480Q704 466 695 457T672 448H608Q594 448 585 457T576 480V1056Q576 1070 585 1079T608 1088H672Q686 1088 695 1079T704 1056zM960 1056V480Q960 466 951 457T928 448H864Q850 448 841 457T832 480V1056Q832 1070 841 1079T864 1088H928Q942 1088 951 1079T960 1056zM1216 1056V480Q1216 466 1207 457T1184 448H1120Q1106 448 1097 457T1088 480V1056Q1088 1070 1097 1079T1120 1088H1184Q1198 1088 1207 1079T1216 1056zM1344 332V1280H448V332Q448 310 455 291.5T469.5 264.5T480 256H1312Q1315 256 1322.5 264.5T1337 291.5T1344 332zM672 1408H1120L1072 1525Q1065 1534 1055 1536H738Q728 1534 721 1525zM1600 1376V1312Q1600 1298 1591 1289T1568 1280H1472V332Q1472 249 1425 188.5T1312 128H480Q414 128 367 186.5T320 328V1280H224Q210 1280 201 1289T192 1312V1376Q192 1390 201 1399T224 1408H533L603 1575Q618 1612 657 1638T736 1664H1056Q1096 1664 1135 1638T1189 1575L1259 1408H1568Q1582 1408 1591 1399T1600 1376z" />
    <glyph glyph-name="trash"
      unicode="&#xE018;"
      horiz-adv-x="1792" d="M616 1176A56 56 0 0 0 672 1120V448A56 56 0 0 0 560 448V1120A56 56 0 0 0 616 1176zM896 1176A56 56 0 0 0 952 1120V448A56 56 0 0 0 840 448V1120A56 56 0 0 0 896 1176zM1232 1120A56 56 0 0 1 1120 1120V448A56 56 0 0 1 1232 448V1120zM1624 1456A112 112 0 0 0 1512 1344H1456V336A224 224 0 0 0 1232 112H560A224 224 0 0 0 336 336V1344H280A112 112 0 0 0 168 1456V1568A112 112 0 0 0 280 1680H672A112 112 0 0 0 784 1792H1008A112 112 0 0 0 1120 1680H1512A112 112 0 0 0 1624 1568V1456zM461.216 1344L448 1337.392V336A112 112 0 0 1 560 224H1232A112 112 0 0 1 1344 336V1337.392L1330.7839999999999 1344H461.216zM280 1456H1512V1568H280V1456z" />
    <glyph glyph-name="upload"
      unicode="&#xE019;"
      horiz-adv-x="1792" d="M896 1568A619.36 619.36 0 0 1 493.4720000000001 1417.696C407.6800000000001 1343.776 345.5200000000001 1247.4560000000001 329.5040000000001 1150.8000000000002C141.792 1109.3600000000001 0 945.84 0 748.384C0 519.008 191.296 336 423.4720000000001 336H1420.9440000000002C1624.2240000000002 336 1792 496.1599999999999 1792 697.424C1792 880.656 1652.896 1029.952 1474.592 1055.152C1447.376 1344.112 1197.28 1568 896 1568zM1159.648 991.648A56 56 0 0 0 1080.3519999999999 912.352L952 1040.816V616A56 56 0 0 0 840 616V1040.816L711.648 912.352A56 56 0 1 0 632.352 991.648L856.352 1215.6480000000001A56 56 0 0 0 935.648 1215.6480000000001L1159.648 991.648z" />
  </font>
</defs>
</svg>
