<svg xmlns="http://www.w3.org/2000/svg" viewBox="0 0 24 24" fill="currentColor">
	<path d="M 7.3652344 1.9746094 L 5.6347656 2.9746094 L 6.2265625 4 L 4 4 L 4 7 L 7 7 L 7 5.3398438 L 14.310547 18 L 14 18 L 14 19 L 14.888672 19 L 16.634766 22.025391 L 18.365234 21.025391 L 17.773438 20 L 20 20 L 20 17 L 17 17 L 17 18.660156 L 9.6894531 6 L 10 6 L 10 5 L 9.1113281 5 L 7.3652344 1.9746094 z M 17 4 L 17 7 L 20 7 L 20 4 L 17 4 z M 5 5 L 6 5 L 6 6 L 5 6 L 5 5 z M 11 5 L 11 6 L 13 6 L 13 5 L 11 5 z M 14 5 L 14 6 L 16 6 L 16 5 L 14 5 z M 18 5 L 19 5 L 19 6 L 18 6 L 18 5 z M 5 8 L 5 10 L 6 10 L 6 8 L 5 8 z M 18 8 L 18 10 L 19 10 L 19 8 L 18 8 z M 5 11 L 5 13 L 6 13 L 6 11 L 5 11 z M 18 11 L 18 13 L 19 13 L 19 11 L 18 11 z M 5 14 L 5 16 L 6 16 L 6 14 L 5 14 z M 18 14 L 18 16 L 19 16 L 19 14 L 18 14 z M 4 17 L 4 20 L 7 20 L 7 17 L 4 17 z M 5 18 L 6 18 L 6 19 L 5 19 L 5 18 z M 8 18 L 8 19 L 10 19 L 10 18 L 8 18 z M 11 18 L 11 19 L 13 19 L 13 18 L 11 18 z M 18 18 L 19 18 L 19 19 L 18 19 L 18 18 z " />
</svg>
