<svg xmlns="http://www.w3.org/2000/svg" viewBox="0 0 24 24" fill="currentColor">
	<path d="M 8.84375 3 L 2.4785156 9.3632812 L 3.8925781 10.777344 L 7.84375 6.828125 L 7.84375 19 L 15.193359 19 L 15.193359 20.001953 C 15.193359 20.554232 15.69336 21.001953 16.193359 21.001953 L 20.193359 21.001953 C 20.745658 21.001953 21.193359 20.554232 21.193359 20.001953 L 21.193359 16.001953 C 21.193359 15.449675 20.745658 15.001953 20.193359 15.001953 L 16.193359 15.001953 C 15.641081 15.001953 15.193359 15.449675 15.193359 16.001953 L 15.193359 17 L 9.84375 17 L 9.84375 6.828125 L 13.792969 10.777344 L 15.207031 9.3632812 L 8.84375 3 z M 17.193359 17.001953 L 19.193359 17.001953 L 19.193359 19.001953 L 17.193359 19.001953 L 17.193359 17.001953 z "></path>
</svg>