<svg xmlns="http://www.w3.org/2000/svg" viewBox="0 0 24 24" fill="currentColor">
	<path style="stroke-width:0.75" d="M 8.037302,9.2678575 11.99995,7.898372 15.862288,9.2678575 c 0.343199,0.07626 0.687612,0.380617 0.687612,0.732142 v 2.5914645 c 0,1.504575 -0.931043,2.802068 -2.104137,3.744225 L 11.99995,18.300014 9.45385,16.33569 C 8.201957,15.50109 7.45,14.09604 7.45,12.591465 V 9.9999995 c 0,-0.351525 0.244147,-0.655882 0.587302,-0.732142 z M 8.95,10.601628 v 1.989836 c 0,1.00305 0.5013,1.939725 1.3359,2.49615 l 1.71405,1.409625 1.613763,-1.409625 c 0.8346,-0.556425 1.3359,-1.4931 1.3359,-2.49615 V 10.601628 L 11.99995,9.4349645 Z M 12.4142,5 H 21 c 0.5523,0 1,0.44772 1,1 v 14 c 0,0.5523 -0.4477,1 -1,1 H 3 C 2.44772,21 2,20.5523 2,20 V 4 C 2,3.44772 2.44772,3 3,3 h 7.4142 z M 4,5 V 19 H 20 V 7 H 11.5858 L 9.58579,5 Z" />
</svg>