<svg xmlns="http://www.w3.org/2000/svg" viewBox="0 0 24 24" fill="currentColor">
	<path style="stroke-width:0.33" d="M 10.232048,18.717 3.70167,20.839166 3.298966,19.599675 2.250179,21.657905 4.30841,22.706639 3.90561,21.466866 10.436,19.344697 Z m 0,-13.4343369 L 3.70167,3.1604974 3.298966,4.3999884 2.250179,2.3417578 4.30841,1.2930239 3.90561,2.5327967 10.436,4.6549659 Z M 14,16 v 3 h -3 v -3 z m -1,1 h -1 v 1 h 1 z m 0,-4.334 v 2 h -1 v -2 z M 20.667,17 v 1 h -2 v -1 z m -3.333,0 v 1 h -2 v -1 z m 0,-11 v 1 h -2 V 6 Z m 3.333,1 V 6 h -2 V 7 Z M 13,9.333 v 2 h -1 v -2 z M 24,0 V 24 H 0 V 0 Z M 23,1 H 1 V 23 H 23 Z M 14,5 V 8 H 11 V 5 Z m -1,1 h -1 v 1 h 1 z M 23,5 V 8 H 22 V 5 Z m 0,11 v 3 h -1 v -3 z" />
</svg>