<svg xmlns="http://www.w3.org/2000/svg" viewBox="0 0 24 24" fill="currentColor">
	<path style="stroke-width:0.33" d="M 10.633,10.165753 3.63841,3.17159 4.559979,2.250059 2.249943,2.25 2.249932,4.560013 3.17171,3.638271 l 6.9946,6.994173 z M 13,17.334 v -2 h -1 v 2 z M 20.667,13 v -1 h -2 v 1 z m -3.333,0 v -1 h -2 v 1 z M 14,23 v -1 h -3 v 1 z m 9,-9 v -3 h -1 v 3 z m -10,6.667 v -2 h -1 v 2 z M 14,14 v -3 h -3 v 3 z m -1,-1 h -1 v -1 h 1 z M 24,24 V 0 H 0 V 24 Z M 23,23 H 1 V 1 h 22 z" />
</svg>