<svg xmlns="http://www.w3.org/2000/svg" viewBox="0 0 24 24" fill="currentColor">
	<path style="stroke-width:0.33" d="m 13.767952,18.717 6.530378,2.122166 0.402704,-1.239491 1.048787,2.05823 -2.058231,1.048734 0.4028,-1.239773 -6.53039,-2.122169 z m 0,-13.4343369 6.530378,-2.1221657 0.402704,1.239491 L 21.749821,2.3417578 19.69159,1.2930239 20.09439,2.5327967 13.564,4.6549659 Z M 10,16 v 3 h 3 v -3 z m 1,1 h 1 v 1 h -1 z m 0,-4.334 v 2 h 1 v -2 z M 3.333,17 v 1 h 2 v -1 z m 3.333,0 v 1 h 2 v -1 z m 0,-11 v 1 h 2 V 6 Z M 3.333,7 V 6 h 2 V 7 Z M 11,9.333 v 2 h 1 v -2 z M 0,0 V 24 H 24 V 0 Z M 1,1 H 23 V 23 H 1 Z m 9,4 v 3 h 3 V 5 Z m 1,1 h 1 V 7 H 11 Z M 1,5 V 8 H 2 V 5 Z m 0,11 v 3 h 1 v -3 z" />
</svg>