<svg xmlns="http://www.w3.org/2000/svg" viewBox="0 0 24 24" fill="currentColor">
	<path style="stroke-width:0.329968" d="m 19.650602,19.184 1.177984,1.178637 0.921354,-0.92157 6e-5,2.310036 -2.309571,1.2e-5 0.921565,-0.921778 L 19.184,19.65069 Z m -15.301204,0 -1.177984,1.178637 -0.921354,-0.92157 -6e-5,2.310036 2.309571,1.2e-5 L 3.638006,20.829337 4.816,19.65069 Z m 0,-14.366885 L 3.171414,3.638478 2.25006,4.560048 2.25,2.250012 4.559571,2.25 3.638006,3.171778 4.816,4.350425 Z m 15.301204,0 1.177984,-1.178637 0.921354,0.92157 L 21.75,2.250012 19.440429,2.25 20.361994,3.171778 19.184,4.350425 Z M 17,12.666 v 2 h 1 v -2 z m -11,0 v 2 h 1 v -2 z M 9.333,17 v 1 h 2 v -1 z m 3.333,0 v 1 h 2 v -1 z m 0,-11 v 1 h 2 V 6 Z M 9.333,6 v 1 h 2 V 6 Z M 6,9.333 v 2 h 1 v -2 z m 11,0 v 2 h 1 v -2 z M 16,16 v 3 h 3 v -3 z m 1,1 h 1 v 1 H 17 Z M 5,16 v 3 h 3 v -3 z m 1,1 h 1 v 1 H 6 Z M 0,0 V 24 H 24 V 0 Z M 1,1 H 23 V 23 H 1 Z m 15,4 v 3 h 3 V 5 Z m 1,1 h 1 V 7 H 17 Z M 5,5 V 8 H 8 V 5 Z M 6,6 H 7 V 7 H 6 Z" />
</svg>