<svg xmlns="http://www.w3.org/2000/svg" viewBox="0 0 24 24" fill="currentColor">
	<path style="stroke-width:0.33" d="M 18.717,10.232048 20.839166,3.70167 19.599675,3.298966 21.657905,2.250179 22.706639,4.30841 21.466866,3.90561 19.344697,10.436 Z m -13.4343369,0 L 3.1604974,3.70167 4.3999884,3.298966 2.3417578,2.250179 1.2930239,4.30841 2.5327967,3.90561 4.6549659,10.436 Z M 16,14 h 3 v -3 h -3 z m 1,-1 v -1 h 1 v 1 z m -4.334,0 h 2 v -1 h -2 z M 17,20.667 h 1 v -2 h -1 z m 0,-3.333 h 1 v -2 h -1 z m -11,0 h 1 v -2 H 6 Z m 1,3.333 H 6 v -2 H 7 Z M 9.333,13 h 2 v -1 h -2 z M 0,24 H 24 V 0 H 0 Z M 1,23 V 1 H 23 V 23 Z M 5,14 H 8 V 11 H 5 Z m 1,-1 v -1 h 1 v 1 z M 5,23 H 8 V 22 H 5 Z m 11,0 h 3 v -1 h -3 z" />
</svg>