<svg xmlns="http://www.w3.org/2000/svg" viewBox="0 0 24 24" fill="currentColor">
	<path style="stroke-width:0.33" d="m 18.717,13.767952 2.122166,6.530378 -1.239491,0.402704 2.05823,1.048787 1.048734,-2.058231 -1.239773,0.4028 -2.122169,-6.53039 z m -13.4343369,0 -2.1221657,6.530378 1.239491,0.402704 L 2.3417578,21.749821 1.2930239,19.69159 2.5327967,20.09439 4.6549659,13.564 Z M 16,10 h 3 v 3 h -3 z m 1,1 v 1 h 1 v -1 z m -4.334,0 h 2 v 1 h -2 z M 17,3.333 h 1 v 2 h -1 z m 0,3.333 h 1 v 2 h -1 z m -11,0 h 1 v 2 H 6 Z M 7,3.333 H 6 v 2 H 7 Z M 9.333,11 h 2 v 1 h -2 z M 0,0 H 24 V 24 H 0 Z M 1,1 V 23 H 23 V 1 Z m 4,9 h 3 v 3 H 5 Z m 1,1 v 1 H 7 V 11 Z M 5,1 H 8 V 2 H 5 Z m 11,0 h 3 v 1 h -3 z" />
</svg>