<svg xmlns="http://www.w3.org/2000/svg" viewBox="0 0 24 24" fill="currentColor">
	<path d="m 3.5,10.5 v 3 h 3 v -3 z M 2,9 h 6 v 6 H 2 Z m 15.5,1.5 v 3 h 3 v -3 z M 16,9 h 6 v 6 h -6 z m -5.5,1.5 v 3 h 3 v -3 z M 9,9 h 6 v 6 H 9 Z m -5.5,8.5 v 3 h 3 v -3 z M 1.9999998,16 h 6.0000003 v 6 H 1.9999998 Z M 17.5,17.5 v 3 h 3 v -3 z M 16,16 h 6 v 6 h -6 z m -5.5,1.5 v 3 h 3 v -3 z M 9.0000001,16 H 15 v 6 H 9.0000001 Z M 3.4999999,3.5 v 3 H 6.5 v -3 z m -1.5,-1.5 H 8.0000001 V 8 H 1.9999999 Z M 17.5,3.5 v 3 h 3 v -3 z M 16,2 h 6 v 6 h -6 z m -5.5,1.5 v 3 h 3 v -3 z M 9.0000001,2 H 15 V 8 H 9.0000001 Z" />
</svg>