<svg xmlns="http://www.w3.org/2000/svg" viewBox="0 0 24 24" fill="currentColor">
	<path d="m 17,16 c -0.552279,0 -1,0.447721 -1,1 v 4 c 0,0.552279 0.5,1 1,1 h 1 2 1 c 0.552299,0 1,-0.447721 1,-1 v -4 c 0,-0.552279 -0.447701,-1 -1,-1 z m 1,2 h 2 v 2 h -2 z m -8,-2 c -0.552279,0 -1,0.447721 -1,1 v 4 c 0,0.552279 0.5,1 1,1 h 1 2 1 c 0.552299,0 1,-0.447721 1,-1 v -4 c 0,-0.552279 -0.447701,-1 -1,-1 z m 1,2 h 2 v 2 H 11 Z M 3,16 c -0.552279,0 -1,0.447721 -1,1 v 4 c 0,0.552279 0.5,1 1,1 h 1 2 1 c 0.552299,0 1,-0.447721 1,-1 V 17 C 8,16.447721 7.552299,16 7,16 Z m 1,2 h 2 v 2 H 4 Z M 10,2 C 9.4477206,2 9,2.4477206 9,3 v 4 c 0,0.5522794 0.5,1 1,1 h 1 v 2.988281 c 0,0 -5.9652223,0.06645 -6,0.01172 -0.5,0 -1,0.5 -1,1 v 4 h 2 v -3 l 5,0.06836 V 16 c 0.102167,0.04772 2,0 2,0 v -3 h 5 v 3 h 2 c 0.0679,0 0,-3.5 0,-4 0,-0.5 -0.5,-1 -1,-1 H 13 V 8 h 1 c 0.552299,0 1,-0.4477206 1,-1 V 3 C 15,2.4477206 14.552299,2 14,2 Z m 1,2 h 2 v 2 h -2 z" />
</svg>