<svg xmlns="http://www.w3.org/2000/svg" viewBox="0 0 24 24" fill="currentColor">
	<path style="stroke-width:0.75" d="m 7.9,7.2 v 6.75 h 8.25 V 8.7 H 12.089354 L 10.589346,7.2 Z m 4.810654,0 H 16.9 c 0.414225,0 0.75,0.33579 0.75,0.75 v 6.75 c 0,0.414225 -0.335775,0.75 -0.75,0.75 H 7.15 C 6.73579,15.45 6.4,15.114225 6.4,14.7 V 6.45 C 6.4,6.03579 6.73579,5.7 7.15,5.7 h 4.060654 z M 3.78307,2.82598 12,1 20.2169,2.82598 C 20.6745,2.92766 21,3.33347 21,3.80217 v 9.98673 c 0,2.0061 -1.0026,3.8795 -2.6718,4.9923 L 12,23 5.6718,18.7812 C 4.00261,17.6684 3,15.795 3,13.7889 V 3.80217 C 3,3.33347 3.32553,2.92766 3.78307,2.82598 Z M 5,4.60434 v 9.18456 c 0,1.3374 0.6684,2.5863 1.7812,3.3282 L 12,20.5963 17.2188,17.1171 C 18.3316,16.3752 19,15.1263 19,13.7889 V 4.60434 L 12,3.04879 Z" />
</svg>