<svg xmlns="http://www.w3.org/2000/svg" viewBox="0 0 24 24" fill="currentColor">
	<path d="m 10.65,6 c 0,0 3.35,0 4.8489,0 C 15.764995,6.0760512 16,6.227655 16,6.4959 v 9.0082 C 16,15.778 15.77755,16 15.5033,16 H 8.4967 C 8.22238,16 8,15.77505 8,15.4966 V 8.65 Z M 9.5,9 H 11 V 7.5 Z M 12,7.5 v 2 C 12,9.77614 11.77615,10 11.5,10 h -2 v 4.5 h 5 v -7 z M 3.78307,2.82598 12,1 20.2169,2.82598 C 20.6745,2.92766 21,3.33347 21,3.80217 v 9.98673 c 0,2.0061 -1.0026,3.8795 -2.6718,4.9923 L 12,23 5.6718,18.7812 C 4.00261,17.6684 3,15.795 3,13.7889 V 3.80217 C 3,3.33347 3.32553,2.92766 3.78307,2.82598 Z M 5,4.60434 v 9.18456 c 0,1.3374 0.6684,2.5863 1.7812,3.3282 L 12,20.5963 17.2188,17.1171 C 18.3316,16.3752 19,15.1263 19,13.7889 V 4.60434 L 12,3.04879 Z" />
</svg>