<svg xmlns="http://www.w3.org/2000/svg" viewBox="0 0 24 24" fill="currentColor">
  <path d="m 10.453125,3.5566406 c -0.0959,0.00881 -0.189394,0.045756 -0.269531,0.1113282 L 4.8886719,8 H 2 C 1.4477206,8 1,8.4477106 1,9 v 6 c 0,0.552299 0.4477206,1 1,1 h 2.8886719 l 5.2949221,4.332031 c 0.0893,0.0731 0.201006,0.113281 0.316406,0.113281 0.2761,0 0.5,-0.2238 0.5,-0.5 V 4.0546875 C 11,3.9392676 10.959819,3.8276112 10.886719,3.7382812 10.777406,3.6047064 10.612955,3.5419627 10.453125,3.5566406 Z M 9,7.2207031 V 16.779297 L 5.6015625,14 H 3 v -4 h 2.6015625 z" />
  <path style="fill:none;stroke:currentColor;stroke-width:1.414;stroke-miterlimit:10;stroke-dashoffset:93.7443" transform="rotate(-67.5)" d="M -2.7653289,15.02422 A 4,4 0 0 1 -5.2345952,18.719739 4,4 0 0 1 -9.593756,17.852648" />
</svg>