<svg xmlns="http://www.w3.org/2000/svg" viewBox="0 0 24 24" fill="currentColor">
  <path d="M 5.602375,10.0001 8.999555,7.22056 V 16.7796 L 5.602375,14.0001 H 3 v -4 z M 2,16.0001 h 2.888445 l 5.29451,4.3318 c 0.0893,0.0731 0.2012,0.113 0.3166,0.113 0.2761,0 0.5,-0.2238 0.5,-0.5 V 4.05519 c 0,-0.11542 -0.0399,-0.22729 -0.113,-0.31662 -0.1749,-0.21372 -0.4899,-0.24522 -0.7036,-0.07036 L 4.888445,8.00007 H 2 c -0.55228,0 -1,0.44771 -1,1 v 6.00003 c 0,0.5523 0.44772,1 1,1 z" />
  <path style="fill:none;stroke:currentColor;stroke-width:1.414;stroke-miterlimit:10;stroke-dasharray:none;stroke-dashoffset:93.7443" d="M 0.73467159,15.024223 A 7.5,7.5 0 0 1 -3.8952027,21.95332 7.5,7.5 0 0 1 -12.068629,20.327524" transform="rotate(-67.5)" />
  <path style="fill:none;stroke:currentColor;stroke-width:1.414;stroke-miterlimit:10;stroke-dasharray:none;stroke-dashoffset:93.7443" d="M -2.7653289,15.02422 A 4,4 0 0 1 -5.2345952,18.719739 4,4 0 0 1 -9.593756,17.852648" transform="rotate(-67.5)" />
</svg>