<svg xmlns="http://www.w3.org/2000/svg" viewBox="0 0 24 24" fill="currentColor">
  <path d="m 19.4142,12.0001 3.5355,3.5355 -1.4142,1.4142 L 18,13.4143 14.4645,16.9498 13.0503,15.5356 16.5858,12.0001 13.0503,8.46454 14.4645,7.05032 18,10.5859 21.5355,7.05032 22.9497,8.46454 Z m -13.811825,-2 3.39718,-2.77954 V 16.7796 L 5.602375,14.0001 H 3 v -4 z M 2,16.0001 h 2.888445 l 5.29451,4.3318 c 0.0893,0.0731 0.2012,0.113 0.3166,0.113 0.2761,0 0.5,-0.2238 0.5,-0.5 V 4.05519 c 0,-0.11542 -0.0399,-0.22729 -0.113,-0.31662 -0.1749,-0.21372 -0.4899,-0.24522 -0.7036,-0.07036 L 4.888445,8.00007 H 2 c -0.55228,0 -1,0.44771 -1,1 v 6.00003 c 0,0.5523 0.44772,1 1,1 z" />
</svg>