<?xml version="1.0" encoding="UTF-8" standalone="no"?>
<svg xmlns:rdf="http://www.w3.org/1999/02/22-rdf-syntax-ns#" xmlns="http://www.w3.org/2000/svg" height="24" width="24" version="1.1" xmlns:cc="http://creativecommons.org/ns#" xmlns:dc="http://purl.org/dc/elements/1.1/">
  <path d="M 3,1 C 1.8954,1 1,1.9 1,3 v 14 c 0,1.1 0.8954,2 2,2 h 11 5 2 c 1.105,0 2,-0.9 2,-2 V 8 5 C 23,3.9 22.105,3 21,3 H 19 14 13 L 10,1 Z" fill="#2980b9" />
  <path d="M 21.19703,14.155124 22.579788,5.75 c 0.17833,-1.083988 -0.853494,-2 -1.907254,-2 H 10.18264 5.4145066 3.5072533 C 2.4538776,3.75 1.6,4.65 1.6,5.75 l 1.3048487,8.405124 z" fill="#bdc3c7" style="stroke-width:0.976538" />
  <path d="M 21.379771,14.905124 22.788867,6.5 c 0.181727,-1.083988 -0.869751,-2 -1.943582,-2 H 10.155583 5.296628 3.353046 c -1.07344,0 -1.943582,0.9 -1.943582,2 l 1.329703,8.405124 z" fill="#bdc3c7" style="fill:#f0f0f2;fill-opacity:1;stroke-width:0.985794" />
  <path d="M 2.0061911,5.3 C 0.90159114,5.3 -0.08774986,6.1889521 0.00619114,7.2666667 L 1.2061911,21.033333 C 1.3001311,22.111048 1.9016211,23 3.0061911,23 H 21.006191 c 1.105,0 1.598089,-0.889635 1.699809,-1.966667 L 24.006191,7.2666667 C 24.107911,6.1896351 23.111191,5.3 22.006191,5.3 Z" fill="#2980b9" style="stroke-width:0.991632" />
  <path d="m 2,5.3 c -1.1046,0 -2.09274549,0.9039169 -2,2 l 1.1,13 c 0.092746,1.096084 0.79543,2 1.9,2 h 18 c 1.105,0 1.698891,-0.904656 1.8,-2 L 24,7.3 c 0.101109,-1.0953434 -0.895,-2 -2,-2 z" fill="#2980b9" style="fill:#3498db;fill-opacity:1" />
</svg>
